<svg width="auto" height="auto" viewBox="0 0 331 46" fill="none" xmlns="http://www.w3.org/2000/svg">
<path d="M52.4492 14.3301C51.2383 17.0449 49.9297 19.7207 48.5234 22.3574C47.1172 24.9746 45.6426 27.4551 44.0996 29.7988C42.5762 32.1426 41.0137 34.3105 39.4121 36.3027C37.8105 38.2754 36.2188 39.9844 34.6367 41.4297C33.0742 42.8555 31.541 43.9785 30.0371 44.7988C28.5527 45.5996 27.1465 46 25.8184 46C25.2715 46 24.7637 45.9023 24.2949 45.707C23.8262 45.5117 23.416 45.248 23.0645 44.916C22.7129 44.5645 22.4395 44.1543 22.2441 43.6855C22.0488 43.2168 21.9512 42.709 21.9512 42.1621V27.9531L6.83398 44.8574C6.44336 45.248 6.01367 45.541 5.54492 45.7363C5.0957 45.9121 4.62695 46 4.13867 46C3.61133 46 3.11328 45.9023 2.64453 45.707C2.19531 45.5117 1.79492 45.248 1.44336 44.916C1.0918 44.5645 0.808594 44.1543 0.59375 43.6855C0.398438 43.2168 0.300781 42.709 0.300781 42.1621V14.3301H7.91797V32.377L23.0938 15.4141C23.6406 14.8672 24.2852 14.5254 25.0273 14.3887C25.7891 14.2324 26.5312 14.3105 27.2539 14.623C27.9766 14.916 28.543 15.3848 28.9531 16.0293C29.3828 16.6543 29.5977 17.3477 29.5977 18.1094V36.2148C31.2383 34.6328 32.7227 32.9629 34.0508 31.2051C35.3789 29.4473 36.6094 27.6406 37.7422 25.7852C38.8945 23.9102 39.9688 22.0156 40.9648 20.1016C41.9805 18.168 42.9668 16.2441 43.9238 14.3301H52.4492ZM89.5391 35.3066C89.5391 36.6152 89.373 37.7969 89.041 38.8516C88.709 39.8867 88.2695 40.8047 87.7227 41.6055C87.1758 42.3867 86.541 43.0605 85.8184 43.627C85.0957 44.1738 84.334 44.623 83.5332 44.9746C82.752 45.3262 81.9512 45.5898 81.1309 45.7656C80.3301 45.9219 79.5684 46 78.8457 46H65.1055C64.0508 46 62.8984 45.8145 61.6484 45.4434C60.3984 45.0723 59.2363 44.4668 58.1621 43.627C57.1074 42.7676 56.2188 41.6641 55.4961 40.3164C54.793 38.9492 54.4414 37.2793 54.4414 35.3066V24.9941C54.4414 23.041 54.793 21.3906 55.4961 20.043C56.2188 18.6758 57.1074 17.5723 58.1621 16.7324C59.2363 15.873 60.3984 15.2578 61.6484 14.8867C62.8984 14.5156 64.0508 14.3301 65.1055 14.3301H78.8457C80.7988 14.3301 82.459 14.6816 83.8262 15.3848C85.1934 16.0879 86.2969 16.9766 87.1367 18.0508C87.9766 19.1055 88.582 20.2578 88.9531 21.5078C89.3438 22.7578 89.5391 23.9199 89.5391 24.9941V35.3066ZM81.9219 25.0527C81.9219 23.998 81.6582 23.2168 81.1309 22.709C80.6035 22.2012 79.8418 21.9473 78.8457 21.9473H65.1641C64.1484 21.9473 63.377 22.2109 62.8496 22.7383C62.3223 23.2461 62.0586 23.998 62.0586 24.9941V35.3066C62.0586 36.3027 62.3223 37.0645 62.8496 37.5918C63.377 38.1191 64.1484 38.3828 65.1641 38.3828H78.8457C79.8809 38.3828 80.6523 38.1191 81.1602 37.5918C81.668 37.0645 81.9219 36.3027 81.9219 35.3066V25.0527ZM123.758 21.9473H106.619C105.584 21.9473 104.803 22.2109 104.275 22.7383C103.748 23.2461 103.484 23.998 103.484 24.9941V46H95.8672V24.9941C95.8672 23.6855 96.0332 22.5137 96.3652 21.4785C96.6973 20.4434 97.1367 19.5352 97.6836 18.7539C98.25 17.9531 98.8945 17.2793 99.6172 16.7324C100.34 16.166 101.092 15.707 101.873 15.3555C102.674 15.0039 103.475 14.75 104.275 14.5938C105.096 14.418 105.857 14.3301 106.561 14.3301H123.758V21.9473ZM166.004 46H155.018L139.666 31.1758C138.807 30.3945 138.406 29.418 138.465 28.2461C138.504 27.6992 138.641 27.1914 138.875 26.7227C139.129 26.2344 139.471 25.8242 139.9 25.4922L153.816 14.2715H166.004L148.074 28.7148L166.004 46ZM136.531 46H128.914V0.941406H136.531V46ZM178.016 7.82617H170.398V0.941406H178.016V7.82617ZM178.016 46H170.398V14.3301H178.016V46ZM214.139 21.9473H200.838V46H193.133V21.9473H183.23V14.3301H193.133V3.98828H200.838V14.3301H214.139V21.9473ZM253.484 35.3066C253.484 36.6152 253.318 37.7969 252.986 38.8516C252.654 39.8867 252.215 40.8047 251.668 41.6055C251.121 42.3867 250.486 43.0605 249.764 43.627C249.041 44.1738 248.279 44.623 247.479 44.9746C246.697 45.3262 245.896 45.5898 245.076 45.7656C244.275 45.9219 243.514 46 242.791 46H229.051C227.996 46 226.844 45.8145 225.594 45.4434C224.344 45.0723 223.182 44.4668 222.107 43.627C221.053 42.7676 220.164 41.6641 219.441 40.3164C218.738 38.9492 218.387 37.2793 218.387 35.3066V24.9941C218.387 23.041 218.738 21.3906 219.441 20.043C220.164 18.6758 221.053 17.5723 222.107 16.7324C223.182 15.873 224.344 15.2578 225.594 14.8867C226.844 14.5156 227.996 14.3301 229.051 14.3301H242.791C244.744 14.3301 246.404 14.6816 247.771 15.3848C249.139 16.0879 250.242 16.9766 251.082 18.0508C251.922 19.1055 252.527 20.2578 252.898 21.5078C253.289 22.7578 253.484 23.9199 253.484 24.9941V35.3066ZM245.867 25.0527C245.867 23.998 245.604 23.2168 245.076 22.709C244.549 22.2012 243.787 21.9473 242.791 21.9473H229.109C228.094 21.9473 227.322 22.2109 226.795 22.7383C226.268 23.2461 226.004 23.998 226.004 24.9941V35.3066C226.004 36.3027 226.268 37.0645 226.795 37.5918C227.322 38.1191 228.094 38.3828 229.109 38.3828H242.791C243.826 38.3828 244.598 38.1191 245.105 37.5918C245.613 37.0645 245.867 36.3027 245.867 35.3066V25.0527ZM294.617 42.1621C294.617 42.709 294.52 43.2168 294.324 43.6855C294.129 44.1543 293.855 44.5645 293.504 44.916C293.172 45.248 292.771 45.5117 292.303 45.707C291.854 45.9023 291.365 46 290.838 46H273.611C272.674 46 271.668 45.8926 270.594 45.6777C269.539 45.4629 268.494 45.1211 267.459 44.6523C266.424 44.1641 265.418 43.5586 264.441 42.8359C263.484 42.0938 262.645 41.2051 261.922 40.1699C261.199 39.1152 260.613 37.9043 260.164 36.5371C259.734 35.1699 259.52 33.627 259.52 31.9082V14.3301H267.137V31.9082C267.137 32.9043 267.303 33.8027 267.635 34.6035C267.986 35.3848 268.455 36.0586 269.041 36.625C269.627 37.1914 270.311 37.6309 271.092 37.9434C271.893 38.2363 272.752 38.3828 273.67 38.3828H287V14.3301H294.617V42.1621ZM330.564 21.9473H317.264V46H309.559V21.9473H299.656V14.3301H309.559V3.98828H317.264V14.3301H330.564V21.9473Z" fill="white"/>
</svg>
